<svg xmlns="http://www.w3.org/2000/svg" width="86.322" height="100.001" viewBox="0 0 86.322 100.001">
  <path id="noun_project_928" d="M93.161.071C59.66-1.043,32.22,11.314,32.22,11.314L32.2,74.023a19.578,19.578,0,0,0-11.772-.651C11.345,75.579,5.4,83.192,7.143,90.379S17.667,101.6,26.749,99.4c8.564-2.081,14.338-8.969,13.507-15.772V36.771a188.127,188.127,0,0,1,44.573-8.485V63.135a19.616,19.616,0,0,0-11.579-.58c-9.083,2.206-15.031,9.819-13.285,17.007S70.488,90.786,79.571,88.58C87.5,86.653,93.042,80.6,93.158,74.316l0,0V.071Z" transform="translate(-6.839)"/>
</svg>
